<!-- محتوى ملف SVG لأيقونة تليجرام -->
<svg xmlns="http://www.w3.org/2000/svg" viewBox="0 0 496 512">
  <path d="M248,8C111.033,8,0,119.033,0,256s111.033,248,248,248s248-111.033,248-248S384.967,8,248,8z M363.691,170.062
    L318.534,386.175c-4.237,19.26-15.677,23.706-31.749,14.682L210.08,320.337l-50.971,49.081c-5.632,5.632-10.319,10.319-21.132,10.319
    l7.555-107.029l194.807-175.653c8.533-7.555-1.958-11.737-13.276-4.182L146.622,260.576L41.856,228.109
    c-19.82-6.198-20.079-19.82,4.182-29.189L359.509,142.2C373.781,137.701,383.888,147.023,363.691,170.062z"/>
</svg>