<svg xmlns="http://www.w3.org/2000/svg" viewBox="0 0 496 512">
  <!-- SVG path data for Telegram icon -->
  <path d="M248 8C111.033 8 0 119.033 0 256s111.033 248 248 
  248 248-111.033 248-248S384.967 8 248 8zm121.871 170.726l-36.236 
  171.373c-2.735 12.932-10.077 16.172-20.444 10.084l-56.444-41.734-27.216 
  26.116c-3.007 3.007-5.522 5.522-11.29 5.522l4.036-57.151 104.108-93.939c4.522-4.036-1-6.289-7.07-2.253l-128.452 
  81.088-55.36-17.277c-12.03-3.743-12.273-12.03 2.522-17.773l216.029-83.252c10.077-3.743 
  18.84 2.254 15.105 17.774z"/>
</svg>