<svg xmlns="http://www.w3.org/2000/svg" viewBox="0 0 448 512">
  <path d="M400 32.3c-20.9 9.3-43.5 15.6-67.1 18.4 24.1-14.4 42.6-37.3 51.2-64.6-22.5 13.3-47.4 22.9-73.9 28.1C290.4 5.9 269.7 0 248.3 0c-42.6 0-77.2 34.6-77.2 77.2 0 6 .7 11.9 2 17.5C110.7 88.5 58.9 59 23.9 14.1 16.8 26.3 12.5 41.1 12.5 56.9c0 26.7 13.5 50.3 34.1 64.1-12.5-.4-24.2-3.8-34.5-9.5v1c0 37.3 26.6 68.4 61.9 75.5-6.5 1.8-13.5 2.7-20.6 2.7-5 0-9.9-.5-14.7-1.3 9.9 31 38.8 53.5 73 54-28 22.1-63.4 35.1-101.8 35.1-6.6 0-13.1-.4-19.5-1.1C36.4 376.4 79.5 389 126.2 389c121.4 0 194.7-128.4 194.7-239.4l-.4-10.2C335.7 128 354 110 368 90.2c-15.3 6.8-31.8 11.4-49 13.4 17.5-10.5 30.9-27.2 37.2-47z"/>
</svg>