<svg xmlns="http://www.w3.org/2000/svg" viewBox="0 0 448 512">
  <!-- SVG path data for WhatsApp icon -->
  <path d="M380.9 97.1C339.1 55.3 287.3 32 231.8 32 132.4 32 48 116.4 48 215.8c0 
  35.6 9.2 70.3 26.7 100.8L24 480l164-50.7c29.5 16 64.1 24.6 
  100.1 24.6 99.4 0 184.6-84.6 184.6-184 0-55.3-23.3-107.1-65.8-149.8zM231.8 
  405.9c-27.2 0-54.6-7.5-78.1-21.5l-5.6-3.3-97.5 30.1 31.2-95.8-3.6-5.8c-15.5-24.9-23.6-53.6-23.6-83 
  0-85 69.2-154 154.4-154 41.1 0 79.7 16 108.8 45.1 29.1 29.1 45.1 67.7 45.1 
  108.8 0 85-69.2 154-154.4 154z"/>
</svg>