<!-- محتوى ملف SVG لأيقونة واتساب -->
<svg xmlns="http://www.w3.org/2000/svg" viewBox="0 0 448 512">
  <path d="M380.9 97.1c-75-75-196.3-75-271.3 0-47.5 47.5-65 114.2-47.5 175.7L7 476l129.2-54.2c61.5 17.5 128.2 0 175.7-47.5 75-75 75-196.3 0-271.3zM369 337.3c-28.8 28.8-66 44.6-106.1 44.6-17.5 0-34.3-2.9-50.1-8.3l-10.2-3.4-76.2 31.9 29.1-81.1-5-10.7c-6.7-14.2-10.4-29.1-10.4-44.5 0-40.1 15.8-77.3 44.6-106.1 28.8-28.8 66-44.6 106.1-44.6s77.3 15.8 106.1 44.6c28.8 28.8 44.6 66 44.6 106.1s-15.8 77.3-44.6 106.1z"/>
</svg>