<svg xmlns="http://www.w3.org/2000/svg" viewBox="0 0 576 512">
  <!-- SVG path data for YouTube icon -->
  <path d="M549.655 124.083c-6.281-23.723-24.827-42.26-48.561-48.572C458.4 
  64 288 64 288 64s-170.4 0-213.094 11.511c-23.735 6.312-42.281 24.849-48.562 
  48.572C16 167.2 16 256 16 256s0 88.8 10.344 131.917c6.281 23.722 24.827 
  42.259 48.561 48.571C117.6 448 288 448 288 448s170.4 0 213.094-11.512c23.734-6.312 
  42.28-24.849 48.561-48.571C560 344.8 560 256 560 256s0-88.8-10.345-131.917zM232 
  336V176l142.857 80L232 336z"/>
</svg>