<!-- محتوى ملف SVG لأيقونة يوتيوب -->
<svg xmlns="http://www.w3.org/2000/svg" viewBox="0 0 576 512">
  <path d="M549.655 124.083c-6.281-23.648-24.778-42.172-48.386-48.449C449.58 64 288 64 288 64s-161.58 0-213.27 11.634c-23.609 6.277-42.105 24.801-48.386 48.449C16 175.084 16 256 16 256s0 80.916 10.344 131.917c6.281 23.648 24.778 42.172 48.386 48.449C126.42 448 288 448 288 448s161.58 0 213.27-11.634c23.609-6.277 42.105-24.801 48.386-48.449C560 336.916 560 256 560 256s0-80.916-10.345-131.917zM232 334.968V177.032L377 256l-145 78.968z"/>
</svg>